<svg xmlns="http://www.w3.org/2000/svg" viewBox="-30,-30,256,256">
    <linearGradient x1="30.999" y1="50" x2="30.999" y2="200.342" gradientUnits="userSpaceOnUse"
        id="linear-gradient">
        <stop offset="0" stop-color="#7df9ff"></stop>
        <stop offset="1" stop-color="#4169e1"></stop>
    </linearGradient>
    <path
        d="M 88.813 13.683 C 89.534 13.972, 90.397 13.936, 90.729 13.604 C 91.061 13.272, 90.471 13.036, 89.417 13.079 C 88.252 13.127, 88.015 13.364, 88.813 13.683 M 80 17 C 79.411 18.100, 79.155 19, 79.430 19 C 79.705 19, 80.411 18.100, 81 17 C 81.589 15.900, 81.845 15, 81.570 15 C 81.295 15, 80.589 15.900, 80 17 M 83.028 16.466 C 82.359 17.273, 81.966 18.383, 82.155 18.934 C 82.345 19.484, 83.020 18.824, 83.656 17.467 C 84.974 14.654, 84.783 14.351, 83.028 16.466 M 95.100 16.705 C 95.829 17.917, 96.640 18.694, 96.903 18.431 C 97.166 18.168, 96.570 17.176, 95.579 16.226 C 93.857 14.577, 93.835 14.598, 95.100 16.705 M 98.080 17 C 99.538 20.061, 100 20.628, 100 19.358 C 100 18.821, 99.300 17.509, 98.445 16.441 C 96.978 14.611, 96.958 14.643, 98.080 17 M 46.360 28 C 46.360 33.225, 46.529 35.362, 46.735 32.750 C 46.941 30.137, 46.941 25.862, 46.735 23.250 C 46.529 20.637, 46.360 22.775, 46.360 28 M 174.476 98 C 174.476 141.725, 174.599 159.612, 174.750 137.750 C 174.900 115.887, 174.900 80.112, 174.750 58.250 C 174.599 36.387, 174.476 54.275, 174.476 98 M 49.476 98 C 49.476 140.075, 49.599 157.288, 49.750 136.250 C 49.900 115.213, 49.900 80.788, 49.750 59.750 C 49.599 38.713, 49.476 55.925, 49.476 98 M 171.343 29.500 C 171.346 33.900, 171.522 35.576, 171.733 33.224 C 171.945 30.872, 171.942 27.272, 171.727 25.224 C 171.512 23.176, 171.339 25.100, 171.343 29.500 M 82 23.678 C 82 24.235, 83.013 25.547, 84.250 26.595 L 86.500 28.500 84.511 26 C 83.417 24.625, 82.404 23.313, 82.261 23.083 C 82.117 22.854, 82 23.122, 82 23.678 M 94.606 25.848 L 92.712 28.500 95.050 26.278 C 96.337 25.056, 97.189 23.862, 96.944 23.626 C 96.700 23.389, 95.648 24.389, 94.606 25.848 M 84.733 30.124 C 85.412 30.808, 86.219 31.115, 86.526 30.807 C 86.834 30.499, 86.279 29.940, 85.293 29.564 C 83.868 29.022, 83.753 29.136, 84.733 30.124 M 88.813 36.683 C 89.534 36.972, 90.397 36.936, 90.729 36.604 C 91.061 36.272, 90.471 36.036, 89.417 36.079 C 88.252 36.127, 88.015 36.364, 88.813 36.683 M 100.068 36.654 C 100.931 36.887, 103.379 40.649, 105.508 45.016 C 107.637 49.382, 109.547 52.787, 109.752 52.581 C 109.958 52.375, 108.293 48.560, 106.052 44.103 C 103.194 38.418, 101.459 36.035, 100.239 36.116 C 98.817 36.211, 98.786 36.309, 100.068 36.654 M 46.415 58 C 46.415 68.175, 46.564 72.337, 46.745 67.250 C 46.927 62.162, 46.927 53.837, 46.745 48.750 C 46.564 43.662, 46.415 47.825, 46.415 58 M 171.415 58 C 171.415 68.175, 171.564 72.337, 171.745 67.250 C 171.927 62.162, 171.927 53.837, 171.745 48.750 C 171.564 43.662, 171.415 47.825, 171.415 58 M 101.100 42.500 C 101.100 43.050, 103.080 47.325, 105.500 52 C 107.920 56.675, 109.900 60.050, 109.900 59.500 C 109.900 58.950, 107.920 54.675, 105.500 50 C 103.080 45.325, 101.100 41.950, 101.100 42.500 M 120.550 75.901 C 121.108 77.870, 120.931 78.187, 119.563 77.663 C 118.583 77.286, 118.148 77.430, 118.507 78.011 C 119.383 79.429, 122.003 79.233, 121.985 77.750 C 121.976 77.063, 121.497 75.825, 120.919 75 C 120.112 73.847, 120.026 74.055, 120.550 75.901 M 91.158 77 C 91.158 78.375, 91.385 78.938, 91.662 78.250 C 91.940 77.563, 91.940 76.438, 91.662 75.750 C 91.385 75.063, 91.158 75.625, 91.158 77 M 46.415 96 C 46.415 106.175, 46.564 110.337, 46.745 105.250 C 46.927 100.162, 46.927 91.837, 46.745 86.750 C 46.564 81.662, 46.415 85.825, 46.415 96 M 171.415 96 C 171.415 106.175, 171.564 110.337, 171.745 105.250 C 171.927 100.162, 171.927 91.837, 171.745 86.750 C 171.564 81.662, 171.415 85.825, 171.415 96 M 123.073 92.635 C 121.757 94.307, 121.046 96.590, 121.125 98.885 L 121.250 102.500 121.938 98.286 C 122.316 95.968, 123.454 93.156, 124.467 92.036 C 125.481 90.916, 126.048 90, 125.728 90 C 125.407 90, 124.212 91.186, 123.073 92.635 M 127.629 91.791 C 127.360 92.226, 128.684 92.402, 130.570 92.182 C 132.457 91.961, 134 91.605, 134 91.391 C 134 90.638, 128.113 91.008, 127.629 91.791 M 135 92.378 C 135 92.585, 135.787 93.373, 136.750 94.128 C 138.336 95.371, 138.371 95.336, 137.128 93.750 C 135.821 92.084, 135 91.555, 135 92.378 M 139.564 94.293 C 139.940 95.279, 140.499 95.834, 140.807 95.526 C 141.115 95.219, 140.808 94.412, 140.124 93.733 C 139.136 92.753, 139.022 92.868, 139.564 94.293 M 138 98.566 C 138 99.977, 137.525 102.114, 136.945 103.316 C 135.926 105.426, 135.943 105.434, 137.445 103.559 C 138.867 101.783, 139.675 96, 138.500 96 C 138.225 96, 138 97.155, 138 98.566 M 123.079 98.583 C 123.127 99.748, 123.364 99.985, 123.683 99.188 C 123.972 98.466, 123.936 97.603, 123.604 97.271 C 123.272 96.939, 123.036 97.529, 123.079 98.583 M 124 101.705 C 124 103.476, 129.015 107.011, 131.385 106.910 C 132.884 106.846, 132.567 106.550, 130.295 105.893 C 128.532 105.383, 126.394 103.974, 125.545 102.761 C 124.695 101.547, 124 101.072, 124 101.705 M 140.079 102.095 C 139.951 104.677, 136.240 107.324, 131.714 108.062 L 127.500 108.750 131.234 108.875 C 134.030 108.969, 135.762 108.291, 138.127 106.178 C 139.976 104.526, 141.052 102.764, 140.722 101.928 C 140.271 100.786, 140.142 100.819, 140.079 102.095 M 46.415 135 C 46.415 145.175, 46.564 149.338, 46.745 144.250 C 46.927 139.162, 46.927 130.837, 46.745 125.750 C 46.564 120.662, 46.415 124.825, 46.415 135 M 171.415 135 C 171.415 145.175, 171.564 149.338, 171.745 144.250 C 171.927 139.162, 171.927 130.837, 171.745 125.750 C 171.564 120.662, 171.415 124.825, 171.415 135 M 121.415 121.138 C 120.934 121.916, 121.127 122.039, 121.990 121.506 C 122.968 120.902, 123.166 121.351, 122.789 123.321 C 122.514 124.761, 122.674 125.702, 123.144 125.411 C 124.290 124.703, 124.237 121.264, 123.069 120.543 C 122.557 120.226, 121.813 120.494, 121.415 121.138 M 131.603 120.833 C 131.320 121.292, 131.723 121.667, 132.500 121.667 C 133.277 121.667, 133.680 121.292, 133.397 120.833 C 133.114 120.375, 132.710 120, 132.500 120 C 132.290 120, 131.886 120.375, 131.603 120.833 M 131.613 125.183 C 131.902 125.650, 132.557 125.774, 133.069 125.457 C 134.377 124.649, 134.230 124.333, 132.544 124.333 C 131.743 124.333, 131.324 124.716, 131.613 125.183 M 126 126.833 C 126 127.292, 126.655 127.667, 127.456 127.667 C 128.257 127.667, 128.680 127.292, 128.397 126.833 C 128.114 126.375, 127.459 126, 126.941 126 C 126.423 126, 126 126.375, 126 126.833 M 136.374 127.467 C 136.065 128.274, 136.043 129.511, 136.327 130.217 C 136.610 130.923, 136.878 130.525, 136.921 129.333 C 136.964 128.142, 137.563 126.940, 138.250 126.662 C 139.229 126.267, 139.222 126.141, 138.219 126.079 C 137.514 126.036, 136.684 126.660, 136.374 127.467 M 88.750 127.662 C 89.438 127.940, 90.563 127.940, 91.250 127.662 C 91.938 127.385, 91.375 127.158, 90 127.158 C 88.625 127.158, 88.063 127.385, 88.750 127.662 M 81.872 130.750 C 80.629 132.336, 80.664 132.371, 82.250 131.128 C 83.916 129.821, 84.445 129, 83.622 129 C 83.415 129, 82.627 129.787, 81.872 130.750 M 96.606 131.152 C 97.648 132.611, 98.700 133.611, 98.944 133.374 C 99.189 133.138, 98.337 131.944, 97.050 130.722 L 94.712 128.500 96.606 131.152 M 84.004 132.496 C 82.714 133.869, 81.848 135.120, 82.079 135.277 C 82.311 135.434, 83.709 134.311, 85.186 132.781 C 86.664 131.251, 87.530 130, 87.111 130 C 86.691 130, 85.293 131.123, 84.004 132.496 M 91 130.393 C 91 130.609, 91.698 131.054, 92.552 131.382 C 93.442 131.723, 93.843 131.555, 93.493 130.989 C 92.906 130.038, 91 129.583, 91 130.393 M 121.634 132.765 C 122.258 133.169, 122.993 134.400, 123.268 135.500 C 123.651 137.033, 123.795 136.858, 123.884 134.750 C 123.968 132.748, 123.524 132.004, 122.250 132.015 C 121.139 132.025, 120.914 132.299, 121.634 132.765 M 131 132.969 C 131 133.501, 131.675 133.678, 132.500 133.362 C 133.325 133.045, 134 132.609, 134 132.393 C 134 132.177, 133.325 132, 132.500 132 C 131.675 132, 131 132.436, 131 132.969 M 95.564 134.293 C 95.940 135.279, 96.499 135.834, 96.807 135.526 C 97.115 135.219, 96.808 134.412, 96.124 133.733 C 95.136 132.753, 95.022 132.868, 95.564 134.293 M 79.195 137.500 C 79.215 139.150, 79.439 139.704, 79.693 138.731 C 79.947 137.758, 79.930 136.408, 79.656 135.731 C 79.382 135.054, 79.175 135.850, 79.195 137.500 M 99.195 137.500 C 99.215 139.150, 99.439 139.704, 99.693 138.731 C 99.947 137.758, 99.930 136.408, 99.656 135.731 C 99.382 135.054, 99.175 135.850, 99.195 137.500 M 126 138.393 C 126 138.609, 126.675 139.045, 127.500 139.362 C 128.325 139.678, 129 139.501, 129 138.969 C 129 138.436, 128.325 138, 127.500 138 C 126.675 138, 126 138.177, 126 138.393 M 136 140.500 C 136 142.244, 136.529 142.976, 137.750 142.921 C 138.795 142.874, 138.997 142.639, 138.250 142.338 C 137.563 142.060, 137 141.233, 137 140.500 C 137 139.767, 137.563 138.940, 138.250 138.662 C 138.997 138.361, 138.795 138.126, 137.750 138.079 C 136.529 138.024, 136 138.756, 136 140.500 M 80 141.889 C 80 142.838, 84.886 147.497, 85.277 146.921 C 85.434 146.689, 84.311 145.291, 82.781 143.814 C 81.251 142.336, 80 141.470, 80 141.889 M 96.454 143.766 C 95.253 145.224, 92.777 146.562, 90.454 147.009 C 86.625 147.746, 86.602 147.774, 89.734 147.885 C 92.002 147.966, 93.944 147.128, 96.234 145.083 C 98.029 143.478, 99.274 141.967, 98.999 141.724 C 98.725 141.482, 97.580 142.401, 96.454 143.766 M 126.813 142.683 C 127.534 142.972, 128.397 142.936, 128.729 142.604 C 129.061 142.272, 128.471 142.036, 127.417 142.079 C 126.252 142.127, 126.015 142.364, 126.813 142.683 M 121.750 144.662 C 122.438 144.940, 123 145.767, 123 146.500 C 123 147.233, 122.438 148.060, 121.750 148.338 C 121.003 148.639, 121.205 148.874, 122.250 148.921 C 123.471 148.976, 124 148.244, 124 146.500 C 124 144.756, 123.471 144.024, 122.250 144.079 C 121.205 144.126, 121.003 144.361, 121.750 144.662 M 131.813 144.683 C 132.534 144.972, 133.397 144.936, 133.729 144.604 C 134.061 144.272, 133.471 144.036, 132.417 144.079 C 131.252 144.127, 131.015 144.364, 131.813 144.683 M 131.813 148.683 C 132.534 148.972, 133.397 148.936, 133.729 148.604 C 134.061 148.272, 133.471 148.036, 132.417 148.079 C 131.252 148.127, 131.015 148.364, 131.813 148.683 M 136.116 152.250 C 136.032 154.252, 136.476 154.996, 137.750 154.985 C 138.861 154.975, 139.086 154.701, 138.366 154.235 C 137.742 153.831, 137.007 152.600, 136.732 151.500 C 136.349 149.967, 136.205 150.142, 136.116 152.250 M 126.813 154.683 C 127.534 154.972, 128.397 154.936, 128.729 154.604 C 129.061 154.272, 128.471 154.036, 127.417 154.079 C 126.252 154.127, 126.015 154.364, 126.813 154.683 M 46.374 166.500 C 46.376 172.550, 46.541 174.896, 46.740 171.713 C 46.939 168.531, 46.937 163.581, 46.736 160.713 C 46.535 157.846, 46.372 160.450, 46.374 166.500 M 171.360 165 C 171.360 170.225, 171.529 172.363, 171.735 169.750 C 171.941 167.137, 171.941 162.863, 171.735 160.250 C 171.529 157.637, 171.360 159.775, 171.360 165 M 79.374 160.467 C 79.065 161.274, 79.043 162.511, 79.327 163.217 C 79.610 163.923, 79.878 163.525, 79.921 162.333 C 79.964 161.142, 80.563 159.940, 81.250 159.662 C 82.229 159.267, 82.222 159.141, 81.219 159.079 C 80.514 159.036, 79.684 159.660, 79.374 160.467 M 89.406 160.384 C 89.079 161.236, 89.043 162.511, 89.327 163.217 C 89.610 163.923, 89.878 163.488, 89.921 162.250 C 90.014 159.591, 91.679 159.238, 92.279 161.750 C 92.619 163.175, 92.678 163.143, 92.598 161.578 C 92.475 159.163, 90.201 158.312, 89.406 160.384 M 84.136 167.750 C 84.253 170.108, 84.334 170.179, 84.706 168.250 C 84.944 167.012, 85.610 166, 86.186 166 C 86.764 166, 86.982 166.960, 86.673 168.144 C 86.272 169.675, 86.420 169.980, 87.189 169.211 C 88.596 167.804, 87.492 165, 85.531 165 C 84.494 165, 84.044 165.888, 84.136 167.750 M 94.406 166.384 C 94.079 167.236, 94.043 168.511, 94.327 169.217 C 94.610 169.923, 94.878 169.488, 94.921 168.250 C 95.014 165.591, 96.679 165.238, 97.279 167.750 C 97.619 169.175, 97.678 169.143, 97.598 167.578 C 97.475 165.163, 95.201 164.312, 94.406 166.384 M 79.015 172.750 C 79.024 173.749, 79.351 174.071, 79.777 173.500 C 80.187 172.950, 80.931 172.162, 81.428 171.750 C 81.926 171.338, 81.583 171, 80.667 171 C 79.740 171, 79.007 171.777, 79.015 172.750 M 89 173.500 C 89 175.482, 89.439 176.062, 90.750 175.810 C 91.713 175.624, 92.500 174.585, 92.500 173.500 C 92.500 172.415, 91.713 171.376, 90.750 171.190 C 89.439 170.938, 89 171.518, 89 173.500 M 90 173.500 C 90 174.325, 90.450 175, 91 175 C 91.550 175, 92 174.325, 92 173.500 C 92 172.675, 91.550 172, 91 172 C 90.450 172, 90 172.675, 90 173.500 M 84.136 179.250 C 84.044 181.112, 84.494 182, 85.531 182 C 87.492 182, 88.596 179.196, 87.189 177.789 C 86.420 177.020, 86.272 177.325, 86.673 178.856 C 86.982 180.040, 86.764 181, 86.186 181 C 85.610 181, 84.944 179.988, 84.706 178.750 C 84.334 176.821, 84.253 176.892, 84.136 179.250 M 94.136 179.323 C 94.031 181.504, 94.396 182.070, 95.739 181.812 C 96.695 181.628, 97.569 180.582, 97.681 179.489 C 97.841 177.928, 97.774 177.877, 97.369 179.250 C 96.647 181.699, 95.222 181.431, 94.706 178.750 C 94.344 176.871, 94.250 176.965, 94.136 179.323 M 79.116 185.250 C 79.032 187.252, 79.476 187.996, 80.750 187.985 C 81.861 187.975, 82.086 187.701, 81.366 187.235 C 80.742 186.831, 80.007 185.600, 79.732 184.500 C 79.349 182.967, 79.205 183.142, 79.116 185.250 M 89.336 184.922 C 89.426 186.254, 90.062 187.529, 90.749 187.755 C 92.413 188.303, 93.555 185.155, 92.189 183.789 C 91.420 183.020, 91.272 183.325, 91.673 184.856 C 91.982 186.040, 91.764 187, 91.186 187 C 90.610 187, 89.922 185.988, 89.656 184.750 C 89.209 182.669, 89.185 182.682, 89.336 184.922 M 84.336 190.922 C 84.426 192.254, 85.062 193.529, 85.749 193.755 C 87.413 194.303, 88.555 191.155, 87.189 189.789 C 86.420 189.020, 86.272 189.325, 86.673 190.856 C 86.982 192.040, 86.764 193, 86.186 193 C 85.610 193, 84.922 191.988, 84.656 190.750 C 84.209 188.669, 84.185 188.682, 84.336 190.922 M 94.336 191 C 94.542 194.147, 97.405 194.357, 97.750 191.250 C 97.962 189.343, 97.913 189.305, 97.430 191 C 96.671 193.666, 95.255 193.538, 94.656 190.750 C 94.230 188.767, 94.192 188.797, 94.336 191"
        fill="url(#linear-gradient)"></path>
    <path
        d="M 85.383 12.583 C 83.669 13.429, 81.766 15.219, 81.154 16.561 L 80.043 19 63.521 19 L 47 19 46.972 27.750 C 46.934 39.912, 46.931 153.110, 46.969 166.250 L 47 177 62.566 177 C 78.112 177, 82 176.293, 82 173.465 C 82 171.845, 80.360 171.452, 79.833 172.946 C 79.541 173.775, 68.490 174.247, 53.750 174.060 L 49 174 49 98 L 49 22 64.392 22 L 79.783 22 80.418 24.531 C 81.182 27.575, 86.418 30.991, 90.327 30.996 C 93.440 31, 99 26.244, 99 23.577 C 99 22.170, 102.927 22, 135.453 22 L 171.906 22 171.907 98 L 171.908 174 167.204 174.039 C 164.617 174.061, 148.588 174.174, 131.584 174.289 C 107.892 174.451, 100.570 174.792, 100.250 175.750 C 99.922 176.735, 107.694 177, 136.917 177 L 174 177 174 97.976 L 174 18.953 136.517 19.226 L 99.035 19.500 97.845 16.627 C 97.144 14.933, 95.303 13.189, 93.360 12.377 C 89.311 10.685, 89.226 10.687, 85.383 12.583 M 85.250 14.989 C 82.468 16.685, 82 17.538, 82 20.913 C 82 23.980, 82.584 25.315, 84.635 26.927 C 86.084 28.067, 88.273 29, 89.500 29 C 90.727 29, 92.916 28.067, 94.365 26.927 C 96.416 25.315, 97 23.980, 97 20.913 C 97 17.538, 96.532 16.685, 93.750 14.989 C 91.963 13.899, 90.050 13.007, 89.500 13.007 C 88.950 13.007, 87.037 13.899, 85.250 14.989 M 88 77 C 88 111.889, 88.192 117, 89.500 117 C 90.808 117, 91 111.889, 91 77 C 91 42.111, 90.808 37, 89.500 37 C 88.192 37, 88 42.111, 88 77 M 108.643 56.750 C 118.392 77.006, 119.463 78.870, 120.661 77.672 C 121.648 76.686, 101.840 37, 100.361 37 C 99.677 37, 103.324 45.698, 108.643 56.750 M 127.357 89.992 C 121.757 92.252, 120.090 101.181, 124.455 105.545 C 129.403 110.494, 139.023 107.725, 140.517 100.922 C 142.189 93.311, 134.649 87.049, 127.357 89.992 M 125.589 94.077 C 122.688 97.525, 122.614 97.854, 123.955 101.383 C 125.286 104.881, 129.384 107.371, 132.518 106.585 C 138.914 104.980, 141.063 97.972, 136.545 93.455 C 133.050 89.959, 128.854 90.197, 125.589 94.077 M 121.531 122.293 C 121.103 123.279, 121.034 124.367, 121.376 124.710 C 122.392 125.725, 123.211 124.299, 122.743 122.328 C 122.329 120.581, 122.275 120.580, 121.531 122.293 M 131.500 122 C 131.101 122.646, 131.224 123.624, 131.774 124.174 C 132.441 124.841, 133.016 124.783, 133.500 124 C 133.899 123.354, 133.776 122.376, 133.226 121.826 C 132.559 121.159, 131.984 121.217, 131.500 122 M 126.500 128 C 126.101 128.646, 126.224 129.624, 126.774 130.174 C 127.441 130.841, 128.016 130.783, 128.500 130 C 128.899 129.354, 128.776 128.376, 128.226 127.826 C 127.559 127.159, 126.984 127.217, 126.500 128 M 137 129.059 C 137 130.191, 137.450 130.840, 138 130.500 C 138.550 130.160, 139 129.234, 139 128.441 C 139 127.648, 138.550 127, 138 127 C 137.450 127, 137 127.927, 137 129.059 M 85.357 128.992 C 79.506 131.353, 78.213 139.367, 82.923 144.077 C 86.957 148.111, 92.043 148.111, 96.077 144.077 C 103.667 136.487, 95.447 124.920, 85.357 128.992 M 84.174 132.314 C 80.386 136.347, 81.465 142.451, 86.329 144.496 C 89.916 146.005, 94.499 144.806, 96.021 141.961 C 100.287 133.989, 90.266 125.830, 84.174 132.314 M 121 134.441 C 121 135.234, 121.450 136.160, 122 136.500 C 122.550 136.840, 123 136.191, 123 135.059 C 123 133.927, 122.550 133, 122 133 C 121.450 133, 121 133.648, 121 134.441 M 131.500 134 C 130.684 135.320, 131.880 137.192, 133.069 136.457 C 134.284 135.707, 134.276 133, 133.059 133 C 132.541 133, 131.840 133.450, 131.500 134 M 126 140.417 C 126 141.287, 126.712 142, 127.583 142 C 128.454 142, 128.989 141.466, 128.771 140.813 C 128.153 138.958, 126 138.651, 126 140.417 M 137 140.500 C 137 141.325, 137.450 142, 138 142 C 138.550 142, 139 141.325, 139 140.500 C 139 139.675, 138.550 139, 138 139 C 137.450 139, 137 139.675, 137 140.500 M 121 146.500 C 121 147.325, 121.450 148, 122 148 C 122.550 148, 123 147.325, 123 146.500 C 123 145.675, 122.550 145, 122 145 C 121.450 145, 121 145.675, 121 146.500 M 131 146.500 C 131 147.325, 131.675 148, 132.500 148 C 133.325 148, 134 147.325, 134 146.500 C 134 145.675, 133.325 145, 132.500 145 C 131.675 145, 131 145.675, 131 146.500 M 126.682 150.652 C 125.451 151.882, 125.969 154, 127.500 154 C 129.166 154, 129.374 153.138, 128.166 151.235 C 127.725 150.539, 127.057 150.277, 126.682 150.652 M 137 151.941 C 137 153.073, 137.450 154, 138 154 C 138.550 154, 139 153.352, 139 152.559 C 139 151.766, 138.550 150.840, 138 150.500 C 137.450 150.160, 137 150.809, 137 151.941 M 80 162.059 C 80 163.191, 80.450 163.840, 81 163.500 C 81.550 163.160, 82 162.234, 82 161.441 C 82 160.648, 81.550 160, 81 160 C 80.450 160, 80 160.927, 80 162.059 M 90 162 C 90 163.100, 90.450 164, 91 164 C 91.550 164, 92 163.100, 92 162 C 92 160.900, 91.550 160, 91 160 C 90.450 160, 90 160.900, 90 162 M 85 168.059 C 85 169.191, 85.450 169.840, 86 169.500 C 86.550 169.160, 87 168.234, 87 167.441 C 87 166.648, 86.550 166, 86 166 C 85.450 166, 85 166.927, 85 168.059 M 95 168 C 95 169.100, 95.450 170, 96 170 C 96.550 170, 97 169.100, 97 168 C 97 166.900, 96.550 166, 96 166 C 95.450 166, 95 166.900, 95 168 M 90 173.500 C 90 174.325, 90.450 175, 91 175 C 91.550 175, 92 174.325, 92 173.500 C 92 172.675, 91.550 172, 91 172 C 90.450 172, 90 172.675, 90 173.500 M 85 178.941 C 85 180.073, 85.450 181, 86 181 C 86.550 181, 87 180.352, 87 179.559 C 87 178.766, 86.550 177.840, 86 177.500 C 85.450 177.160, 85 177.809, 85 178.941 M 95 179 C 95 180.100, 95.450 181, 96 181 C 96.550 181, 97 180.100, 97 179 C 97 177.900, 96.550 177, 96 177 C 95.450 177, 95 177.900, 95 179 M 80 184.941 C 80 186.073, 80.450 187, 81 187 C 81.550 187, 82 186.352, 82 185.559 C 82 184.766, 81.550 183.840, 81 183.500 C 80.450 183.160, 80 183.809, 80 184.941 M 90 184.941 C 90 186.073, 90.450 187, 91 187 C 91.550 187, 92 186.352, 92 185.559 C 92 184.766, 91.550 183.840, 91 183.500 C 90.450 183.160, 90 183.809, 90 184.941 M 85 190.941 C 85 192.073, 85.450 193, 86 193 C 86.550 193, 87 192.352, 87 191.559 C 87 190.766, 86.550 189.840, 86 189.500 C 85.450 189.160, 85 189.809, 85 190.941 M 95 191 C 95 192.100, 95.450 193, 96 193 C 96.550 193, 97 192.100, 97 191 C 97 189.900, 96.550 189, 96 189 C 95.450 189, 95 189.900, 95 191"
        fill="url(#linear-gradient)"></path>
</svg>