<svg xmlns="http://www.w3.org/2000/svg" x="0px" y="0px" width="24" height="24" viewBox="0 0 50 50">
<linearGradient id="_lgradient_7" x1="0.6718099850460906" y1="0.020570018975650584" x2="0.4221494918345081" y2="0.9601645064179158" gradientTransform="matrix(47,0,0,47.058,0.5,0.471)" gradientUnits="userSpaceOnUse"><stop offset="0%" stop-opacity="1" style="stop-color:#7df9ff"/><stop offset="100%" stop-opacity="1" style="stop-color:royalblue"/></linearGradient>
<path d="M 5 8 A 2.0002 2.0002 0 1 0 5 12 L 45 12 A 2.0002 2.0002 0 1 0 45 8 L 5 8 z M 5 23 A 2.0002 2.0002 0 1 0 5 27 L 45 27 A 2.0002 2.0002 0 1 0 45 23 L 5 23 z M 5 38 A 2.0002 2.0002 0 1 0 5 42 L 45 42 A 2.0002 2.0002 0 1 0 45 38 L 5 38 z" fill-rule="evenodd" fill="url(#_lgradient_7)"></path>
</svg>