<svg xmlns="http://www.w3.org/2000/svg" viewBox="-140,-140,1100,1100">
    <linearGradient x1="30.999" y1="150" x2="30.999" y2="600.342" gradientUnits="userSpaceOnUse"
        id="linear-gradient">
        <stop offset="0" stop-color="#7df9ff"></stop>
        <stop offset="1" stop-color="#4169e1"></stop>
    </linearGradient>
    <path
        d="M0 0 C3.50803902 4.03180289 6.01040871 8.55629763 8.59667969 13.21289062 C9.19037354 14.25590332 9.78406738 15.29891602 10.39575195 16.37353516 C11.65020073 18.57764715 12.89971437 20.78457452 14.14453125 22.99414062 C16.60173326 27.3421818 19.10204665 31.66456334 21.60424805 35.98681641 C23.49006464 39.24465148 25.37033572 42.5056275 27.24902344 45.76757812 C31.0077335 52.29275305 34.77059719 58.81552513 38.53417969 65.33789062 C39.78419848 67.50454645 41.03419847 69.67121312 42.28417969 71.83789062 C42.90292969 72.91039063 43.52167969 73.98289062 44.15917969 75.08789062 C79.78417969 136.83789063 79.78417969 136.83789063 81.65942383 140.08837891 C82.90853487 142.25346133 84.15772098 144.41850045 85.40698242 146.58349609 C88.54620278 152.02404768 91.68408532 157.46536278 94.81933594 162.90820312 C99.73181629 171.43416321 104.64540674 179.95937991 109.59667969 188.46289062 C110.17506592 189.45732178 110.75345215 190.45175293 111.34936523 191.47631836 C112.51149017 193.4626638 113.68220735 195.44400788 114.86157227 197.42016602 C117.82837516 202.41299765 120.59554242 207.4087476 123.10839844 212.64648438 C131.14179457 228.835128 140.5328363 235.74346515 156.59082031 243.60791016 C162.21694136 246.43453337 167.60821783 249.64863813 173.03417969 252.83789062 C175.19972325 254.08983532 177.36639252 255.33983484 179.53417969 256.58789062 C218.53417969 279.08789062 257.53417969 301.58789062 296.53417969 324.08789062 C297.60740479 324.70704346 298.68062988 325.32619629 299.78637695 325.96411133 C301.94577363 327.20994832 304.10511638 328.45587881 306.2644043 329.7019043 C312.92277047 333.54394591 319.58323799 337.38231488 326.24511719 341.21826172 C329.52199181 343.10733411 332.79587363 345.00150673 336.06933594 346.89648438 C339.73152798 349.01553619 343.40348597 351.11406932 347.09277344 353.18554688 C362.79842415 362.07088886 373.99972604 371.90769581 380.03417969 389.33789062 C383.42307086 402.14275158 381.5368914 416.69724385 375.49121094 428.29882812 C368.39537831 440.15227851 359.45714215 446.24541359 347.69091797 452.84082031 C343.73430549 455.0703689 339.80772867 457.35116849 335.87744141 459.62670898 C332.53765893 461.55954782 329.19461823 463.48663357 325.85058594 465.41210938 C319.24302939 469.21708878 312.63826943 473.02689803 306.03417969 476.83789062 C299.51185529 480.60154428 292.98904205 484.36433685 286.46386719 488.12304688 C276.01211769 494.14536391 265.57118421 500.184584 255.15917969 506.27539062 C245.88918191 511.6971024 236.57586217 517.03993978 227.24572754 522.3571167 C218.12135129 527.55834191 209.03285195 532.8181694 199.96728516 538.12133789 C192.71206149 542.3640639 185.44056665 546.57773148 178.15917969 550.77539062 C176.56033936 551.69747314 176.56033936 551.69747314 174.92919922 552.63818359 C169.83438213 555.57523185 164.73772466 558.50903203 159.63754272 561.43675232 C157.25820797 562.80295576 154.87975686 564.17069318 152.50140381 565.53860474 C150.82977578 566.49918928 149.1568489 567.45751241 147.48388672 568.41577148 C145.49455 569.56005658 143.50961912 570.71205349 141.53027344 571.87353516 C139.55936811 573.02978419 137.57287493 574.15946129 135.58105469 575.27929688 C132.12715239 578.07102465 130.52690796 581.17215804 128.53417969 585.08789062 C127.66458326 586.72219574 126.7920294 588.35492964 125.91699219 589.98632812 C125.45325195 590.85612305 124.98951172 591.72591797 124.51171875 592.62207031 C121.92143351 597.38319606 119.15865132 602.04249184 116.40917969 606.71289062 C111.22440342 615.55432853 106.10729147 624.43212403 101.03417969 633.33789062 C95.4946613 643.05932768 89.90042774 652.7468438 84.25073242 662.40478516 C78.09651227 672.92873687 72.01047973 683.491692 65.92529297 694.05566406 C62.7973782 699.48449005 59.66559521 704.91108344 56.53417969 710.33789062 C55.2841609 712.50454645 54.0341609 714.67121312 52.78417969 716.83789062 C45.28417969 729.83789062 37.78417969 742.83789062 30.28417969 755.83789062 C29.66494629 756.91167969 29.04571289 757.98546875 28.40771484 759.09179688 C27.164177 761.24635502 25.91907313 763.40001011 24.67236328 765.55273438 C21.77508057 770.55982154 18.89272784 775.57352869 16.06878662 780.62231445 C15.07880543 782.39045449 14.08364565 784.15557967 13.08691406 785.91992188 C11.84614228 788.11987185 10.61487935 790.32522612 9.39550781 792.53710938 C1.60596415 806.2854339 -9.14394928 817.78109393 -24.57519531 822.42382812 C-39.38916266 825.9594466 -54.60935289 823.80243426 -67.65332031 816.21289062 C-77.74164326 809.26587068 -83.79469014 799.93335008 -89.59082031 789.33789062 C-90.27940902 788.10287771 -90.96946343 786.86868102 -91.66088867 785.63525391 C-93.07736501 783.10679063 -94.48846217 780.57544318 -95.89599609 778.04199219 C-99.04171632 772.39494219 -102.28725892 766.80557808 -105.52832031 761.21289062 C-106.7694498 759.06459411 -108.01033526 756.9161566 -109.25097656 754.76757812 C-109.86344238 753.70764648 -110.4759082 752.64771484 -111.10693359 751.55566406 C-114.22906636 746.15118417 -117.34723235 740.7444165 -120.46582031 735.33789062 C-121.71580153 733.17121312 -122.96580152 731.00454645 -124.21582031 728.83789062 C-146.71582031 689.83789063 -146.71582031 689.83789063 -148.59106445 686.58740234 C-149.84017549 684.42231992 -151.08936161 682.2572808 -152.33862305 680.09228516 C-155.47784341 674.65173357 -158.61572594 669.21041847 -161.75097656 663.76757812 C-168.3375034 652.33664081 -174.95308622 640.92389399 -181.61523438 629.53686523 C-186.57238434 621.04757137 -191.44644908 612.51206198 -196.30685425 603.96716309 C-200.93082047 595.83984641 -205.63845404 587.78098614 -210.55957031 579.83007812 C-211.96582031 577.33789062 -211.96582031 577.33789062 -211.96582031 575.33789062 C-212.73410156 575.13550781 -213.50238281 574.933125 -214.29394531 574.72460938 C-219.45541195 572.77533208 -223.98674583 569.97181365 -228.71582031 567.15039062 C-230.8794958 565.87369284 -233.04357197 564.59767392 -235.20800781 563.32226562 C-236.32401367 562.66291016 -237.44001953 562.00355469 -238.58984375 561.32421875 C-243.98708361 558.14863707 -249.41346032 555.02412503 -254.84082031 551.90039062 C-257.02573407 550.64130714 -259.21062981 549.38219239 -261.39550781 548.12304688 C-262.48057617 547.4980127 -263.56564453 546.87297852 -264.68359375 546.22900391 C-270.11241974 543.10108914 -275.53901312 539.96930615 -280.96582031 536.83789062 C-283.13247614 535.58787184 -285.29914281 534.33787184 -287.46582031 533.08789062 C-317.79915365 515.58789062 -348.13248698 498.08789062 -378.46582031 480.58789062 C-380.07577881 479.65916138 -380.07577881 479.65916138 -381.71826172 478.71166992 C-383.87700734 477.46611492 -386.03553732 476.22018609 -388.19384766 474.97387695 C-393.72996458 471.77771219 -399.27009374 468.58884957 -404.81738281 465.41210938 C-452.22157393 438.23868329 -452.22157393 438.23868329 -458.96582031 415.33789062 C-462.06508293 403.19911202 -459.92787249 389.6252991 -454.27832031 378.58789062 C-447.85878162 367.8105629 -439.62873433 361.57959639 -428.96582031 355.33789062 C-428.05477539 354.80421875 -427.14373047 354.27054687 -426.20507812 353.72070312 C-420.20320933 350.21880237 -414.18066638 346.7537516 -408.14852905 343.30429077 C-402.07779763 339.83248639 -396.02171516 336.33548636 -389.96582031 332.83789062 C-387.79921874 331.58777781 -385.63255195 330.337778 -383.46582031 329.08789062 C-382.39332031 328.46914063 -381.32082031 327.85039062 -380.21582031 327.21289062 C-266.46582031 261.58789063 -266.46582031 261.58789063 -263.21166992 259.71069336 C-261.05860994 258.46841257 -258.90577553 257.22574074 -256.75317383 255.98266602 C-251.7248057 253.0795295 -246.69442218 250.18010195 -241.65560913 247.2951355 C-239.88149486 246.27911879 -238.10812113 245.26182134 -236.33496094 244.24414062 C-234.11766717 242.97206771 -231.89900956 241.70236777 -229.67871094 240.43554688 C-226.76024549 238.75933826 -223.86267556 237.05107903 -220.96582031 235.33789062 C-220.13791992 234.8801123 -219.31001953 234.42233398 -218.45703125 233.95068359 C-211.90620472 230.07498442 -208.89691008 225.20254999 -205.34082031 218.58789062 C-204.12879266 216.42370942 -202.91654559 214.25965109 -201.70410156 212.09570312 C-200.78105225 210.42169434 -200.78105225 210.42169434 -199.83935547 208.71386719 C-196.809453 203.2541993 -193.66229265 197.86324306 -190.52832031 192.46289062 C-189.26837952 190.27847113 -188.00926882 188.09357264 -186.75097656 185.90820312 C-182.9922665 179.3830282 -179.22940281 172.86025612 -175.46582031 166.33789062 C-174.21580152 164.1712348 -172.96580153 162.00456813 -171.71582031 159.83789062 C-154.21582031 129.50455729 -136.71582031 99.17122396 -119.21582031 68.83789062 C-118.59682861 67.76490723 -117.97783691 66.69192383 -117.34008789 65.58642578 C-116.09275483 63.42451179 -114.84519701 61.26272746 -113.59741211 59.10107422 C-110.42973199 53.61274478 -107.26625271 48.1220653 -104.11035156 42.62695312 C-100.99464481 37.2042235 -97.86797701 31.78799689 -94.72949219 26.37841797 C-93.57486931 24.38787626 -92.42243888 22.39606082 -91.27246094 20.40283203 C-81.46122047 3.43829467 -72.64984304 -10.05609236 -52.85644531 -15.94335938 C-33.0445332 -20.86956455 -14.04788494 -14.28930237 0 0 Z M-41.93905318 135.0627265 C-42.75545189 135.87988465 -43.5718506 136.6970428 -44.41298866 137.53896332 C-44.86946887 137.99313584 -45.32594908 138.44730836 -45.79626203 138.91524369 C-47.34184743 140.45548801 -48.88013075 142.00283039 -50.41860962 143.5501709 C-51.52947984 144.66016989 -52.64078906 145.76972967 -53.75250185 146.87888479 C-56.81952577 149.9414149 -59.88024228 153.01018317 -62.94001579 156.07995486 C-66.23565937 159.38420149 -69.53704562 162.68270126 -72.8377533 165.98188782 C-78.5601062 171.70318987 -84.27877359 177.42815471 -89.99498367 183.15559387 C-98.259761 191.43659621 -106.53002786 199.71209798 -114.80166321 207.98624939 C-128.22032136 221.40928937 -141.63450321 234.83679352 -155.04589844 248.26708984 C-168.07708961 261.31662722 -181.11037091 274.36407118 -194.14648438 287.40869141 C-194.94946074 288.21219322 -195.7524371 289.01569503 -196.57974608 289.84354538 C-200.60788561 293.8742949 -204.63606642 297.90500315 -208.66426778 301.93569088 C-242.10452351 335.39669429 -275.53752712 368.86493666 -308.96582031 402.33789062 C-307.43879339 405.94161802 -305.30672056 408.24566976 -302.5498867 410.99991989 C-301.87023151 411.68303662 -301.87023151 411.68303662 -301.17684591 412.37995368 C-299.65226401 413.9098434 -298.12063365 415.43247524 -296.58895874 416.95526123 C-295.48548358 418.0596083 -294.38244792 419.16439466 -293.27981532 420.26958299 C-290.2446002 423.30927858 -287.20316984 426.34268865 -284.16071081 429.37513137 C-280.88239327 432.64482681 -277.60984227 435.92028469 -274.33659363 439.1950531 C-268.66334466 444.86935171 -262.98643994 450.53997159 -257.3070488 456.20812225 C-249.09556846 464.40336123 -240.88960424 472.60410521 -232.6849838 480.80621126 C-219.37397543 494.1128404 -206.05850513 507.41499536 -192.74023438 520.71435547 C-179.80137076 533.63486623 -166.86460552 546.55747205 -153.93066406 559.48291016 C-153.13366169 560.27938708 -152.33665932 561.07586401 -151.51550536 561.8964766 C-147.51726523 565.89210669 -143.51906639 569.8877781 -139.52088809 573.88347006 C-106.34226597 607.04135254 -73.15640446 640.19198227 -39.96582031 673.33789062 C-36.36209292 671.8108637 -34.05804118 669.67879087 -31.30379105 666.92195702 C-30.62067432 666.24230182 -30.62067432 666.24230182 -29.92375726 665.54891622 C-28.39386753 664.02433432 -26.8712357 662.49270396 -25.34844971 660.96102905 C-24.24410264 659.85755389 -23.13931627 658.75451823 -22.03412795 657.65188563 C-18.99443236 654.61667051 -15.96102229 651.57524016 -12.92857957 648.53278112 C-9.65888413 645.25446359 -6.38342625 641.98191258 -3.10865784 638.70866394 C2.56564077 633.03541497 8.23626066 627.35851025 13.90441132 621.67911911 C22.09965029 613.46763877 30.30039427 605.26167455 38.50250033 597.05705412 C51.80912946 583.74604574 65.11128443 570.43057544 78.41064453 557.11230469 C91.33115529 544.17344107 104.25376111 531.23667584 117.17919922 518.30273438 C117.97567614 517.505732 118.77215307 516.70872963 119.59276566 515.88757567 C123.58839575 511.88933554 127.58406716 507.8911367 131.57975912 503.8929584 C164.7376416 470.71433628 197.88827133 437.52847477 231.03417969 404.33789062 C229.50740632 400.73649845 227.37732168 398.43045517 224.6238327 395.67586136 C224.17132843 395.22045021 223.71882416 394.76503906 223.25260764 394.29582757 C221.7300434 392.76594513 220.20043495 391.24330677 218.67077637 389.72052002 C217.56872952 388.61616948 216.46711916 387.51138321 215.3659091 386.40619826 C212.3345716 383.36649189 209.29700319 380.33307911 206.25838828 377.30064988 C202.98414808 374.0309245 199.71565537 370.7554626 196.44642639 367.48072815 C190.04004208 361.06543841 183.62824755 354.65558226 177.2145139 348.24764094 C172.00448023 343.04211845 166.79639515 337.83465395 161.58970642 332.62578583 C160.8495334 331.88530634 160.10936037 331.14482684 159.34675786 330.38190858 C157.8432889 328.8778002 156.33982445 327.37368732 154.83636445 325.86956999 C140.73029208 311.75779116 126.61808976 297.65215527 112.50379485 283.54860112 C100.38105143 271.43479719 88.26356668 259.31575375 76.14990234 247.19287109 C62.0947544 233.12703246 48.03638357 219.0644281 33.97281504 205.00700831 C32.4747568 203.50958721 30.97670276 202.0121619 29.47865295 200.51473236 C28.37293389 199.40947612 28.37293389 199.40947612 27.24487707 198.28189148 C22.03867607 193.07742075 16.83480655 187.87062573 11.63182068 182.66294098 C5.2967077 176.32223265 -1.04192788 169.9850717 -7.38517821 163.65250358 C-10.62434293 160.41861321 -13.86185438 157.18311097 -17.09509087 153.94329262 C-20.05028493 150.9821735 -23.00999308 148.02564856 -25.97349447 145.07284412 C-27.04923661 143.99935069 -28.12326597 142.92413782 -29.19547325 141.84711376 C-30.64422471 140.39235023 -32.09964857 138.94424037 -33.55547333 137.49655533 C-34.76933189 136.28318383 -34.76933189 136.28318383 -36.00771284 135.04529977 C-38.68436513 132.71134177 -39.26592008 132.72609612 -41.93905318 135.0627265 Z "
        fill="url(#linear-gradient)" transform="translate(459.9658203125,17.662109375)" />
    <path
        d="M0 0 C3.5331725 1.43462184 5.95811839 4.37118138 8.59452593 7.0450623 C9.58583038 8.03252184 9.58583038 8.03252184 10.59716117 9.03993005 C12.81687969 11.25469458 15.02568401 13.48003526 17.23472369 15.70544744 C18.82085617 17.29242584 20.40764895 18.87874452 21.99505389 20.46445012 C26.30927481 24.7778083 30.61416658 29.10037118 34.91748488 33.42460299 C39.4138156 37.93965395 43.91861112 42.4462428 48.42252886 46.95372319 C55.98309437 54.52256152 63.5383945 62.09661591 71.08970416 69.67468572 C78.86776492 77.48028148 86.64896881 85.28272169 94.43443072 93.08093572 C94.91428611 93.56157928 95.39414151 94.04222285 95.88853797 94.53743137 C98.29583927 96.94864776 100.7032026 99.35980222 103.11059678 101.77092588 C123.08379936 121.77523107 143.04599564 141.79049194 163.00132525 161.81262517 C161.73064276 164.59092214 160.42084479 166.64447266 158.26762354 168.80638909 C157.42933565 169.65527537 157.42933565 169.65527537 156.57411265 170.52131087 C155.96011509 171.13289335 155.34611752 171.74447583 154.71351397 172.37459111 C153.73513152 173.36082858 153.73513152 173.36082858 152.73698378 174.36699003 C150.54617382 176.57282367 148.34825108 178.7714284 146.15025103 180.97009587 C144.57971647 182.54825004 143.00958661 184.12680705 141.43983233 185.70573735 C137.17210078 189.99543384 132.89779517 194.27852054 128.62160885 198.55978727 C125.95279125 201.23224453 123.28527746 203.90599618 120.61820376 206.58019376 C113.23541153 213.98243859 105.85115387 221.38321236 98.46008265 228.7771914 C97.98734134 229.25012028 97.51460003 229.72304916 97.02753323 230.21030922 C96.06916575 231.16904295 95.11079699 232.1277754 94.15242697 233.08650658 C93.67668938 233.56242699 93.20095179 234.03834739 92.71079791 234.52868962 C92.23447979 235.00518829 91.75816167 235.48168696 91.26740967 235.97262498 C83.53962322 243.70395752 75.82365959 251.44697397 68.11280014 259.19518528 C60.19845908 267.14755714 52.27462265 275.09036681 44.34161139 283.02412218 C39.88658969 287.47993915 35.43568737 291.9396961 30.99446261 296.40926862 C26.82102054 300.60875237 22.63593354 304.7962612 18.44140017 308.97467542 C16.9003129 310.5139374 15.36352791 312.05752005 13.83129656 313.60559773 C11.74652581 315.71061631 9.64711248 317.79981424 7.54310381 319.88557744 C6.93356769 320.50831353 6.32403157 321.13104962 5.69602466 321.7726565 C3.98670924 323.44806695 3.98670924 323.44806695 1.00132525 325.81262517 C-3.74636832 325.3675311 -6.4130015 321.80424586 -9.59187543 318.58018804 C-10.25274506 317.92188168 -10.91361469 317.26357533 -11.59451067 316.58532029 C-13.81422919 314.37055576 -16.02303351 312.14521508 -18.23207319 309.9198029 C-19.81820567 308.3328245 -21.40499845 306.74650582 -22.99240339 305.16080022 C-27.30662431 300.84744204 -31.61151608 296.52487916 -35.91483438 292.20064735 C-40.4111651 287.68559639 -44.91596062 283.17900754 -49.41987836 278.67152715 C-56.98044387 271.10268882 -64.535744 263.52863443 -72.08705366 255.95056462 C-79.86511442 248.14496886 -87.64631831 240.34252865 -95.43178022 232.54431462 C-95.91163561 232.06367106 -96.39149101 231.58302749 -96.88588747 231.08781897 C-99.29318877 228.67660258 -101.7005521 226.26544812 -104.10794628 223.85432446 C-124.08114886 203.85001927 -144.04334514 183.8347584 -163.99867475 163.81262517 C-162.72799226 161.0343282 -161.41819429 158.98077768 -159.26497304 156.81886125 C-158.42668515 155.96997497 -158.42668515 155.96997497 -157.57146215 155.10393947 C-156.95746459 154.49235699 -156.34346702 153.88077451 -155.71086347 153.25065923 C-154.73248102 152.26442176 -154.73248102 152.26442176 -153.73433328 151.25826031 C-151.54352332 149.05242667 -149.34560058 146.85382194 -147.14760053 144.65515447 C-145.57706597 143.0770003 -144.00693611 141.49844329 -142.43718183 139.91951299 C-138.16945028 135.6298165 -133.89514467 131.3467298 -129.61895835 127.06546307 C-126.95014075 124.39300581 -124.28262696 121.71925416 -121.61555326 119.04505658 C-114.23276103 111.64281175 -106.84850337 104.24203798 -99.45743215 96.84805894 C-98.74832019 96.13866562 -98.74832019 96.13866562 -98.02488273 95.41494112 C-97.06651525 94.45620739 -96.1081465 93.49747494 -95.14977647 92.53874376 C-94.43617009 91.82486315 -94.43617009 91.82486315 -93.70814741 91.09656072 C-93.23182929 90.62006205 -92.75551117 90.14356338 -92.26475917 89.65262536 C-84.53697272 81.92129282 -76.82100909 74.17827637 -69.11014964 66.43006506 C-61.19580858 58.4776932 -53.27197215 50.53488352 -45.33896089 42.60112816 C-40.88393919 38.14531119 -36.43303687 33.68555424 -31.99181211 29.21598172 C-27.81837004 25.01649797 -23.63328304 20.82898914 -19.43874967 16.65057492 C-17.8976624 15.11131294 -16.36087741 13.56773029 -14.82864606 12.01965261 C-12.74387531 9.91463403 -10.64446198 7.8254361 -8.54045331 5.7396729 C-7.93091719 5.11693681 -7.32138107 4.49420072 -6.69337416 3.85259384 C-2.5216304 -0.23640168 -2.5216304 -0.23640168 0 0 Z "
        fill="url(#linear-gradient)" transform="translate(420.99867475032806,258.187374830246)" />
</svg>