<svg xmlns="http://www.w3.org/2000/svg" viewBox="-80,-90,500,500">
    <linearGradient x1="30.999" y1="16" x2="30.999" y2="200.342" gradientUnits="userSpaceOnUse"
        id="linear-gradient">
        <stop offset="0" stop-color="#7df9ff"></stop>
        <stop offset="1" stop-color="#4169e1"></stop>
    </linearGradient>
    <path
        d="M 136 7.679 C 109.880 12.111, 90.290 19.752, 69.241 33.717 C 62.120 38.442, 41.688 57.308, 36.898 63.581 C 24.334 80.037, 15.143 97.260, 10.162 113.681 C 5.074 130.457, 3.630 140.549, 3.606 159.500 C 3.583 178.328, 5.034 188.571, 10.040 204.921 C 18.968 234.081, 37.310 260.599, 62.029 280.081 C 77.898 292.588, 99.774 303.197, 121 308.681 L 131.500 311.394 214.500 311.719 C 292.342 312.024, 297.716 311.934, 300.974 310.272 C 312.407 304.439, 313.136 287.430, 302.271 279.983 L 298.649 277.500 219.075 276.895 C 135.256 276.258, 135.635 276.280, 121 271.359 C 113.332 268.781, 95.828 260.617, 93.671 258.613 C 93.012 258.001, 90.229 255.972, 87.487 254.104 C 80.114 249.084, 66.077 234.562, 60.320 226 C 46.306 205.158, 39.518 183.403, 39.573 159.500 C 39.661 120.841, 58.452 85.377, 90.951 62.535 C 101.818 54.896, 115.633 48.972, 132.500 44.717 C 140.075 42.807, 144.692 42.668, 219.500 42.100 L 298.500 41.500 302.038 39.299 C 312.205 32.976, 312.607 16.848, 302.773 9.834 L 299.500 7.500 219 7.378 C 174.725 7.310, 137.375 7.446, 136 7.679 M 232.500 169 C 233.495 170.100, 234.535 171, 234.810 171 C 235.085 171, 234.495 170.100, 233.500 169 C 232.505 167.900, 231.465 167, 231.190 167 C 230.915 167, 231.505 167.900, 232.500 169 M 256.500 213 C 257.495 214.100, 258.535 215, 258.810 215 C 259.085 215, 258.495 214.100, 257.500 213 C 256.505 211.900, 255.465 211, 255.190 211 C 254.915 211, 255.505 211.900, 256.500 213 M 257.405 238.250 L 255.500 240.500 257.750 238.595 C 259.864 236.805, 260.455 236, 259.655 236 C 259.465 236, 258.453 237.012, 257.405 238.250"
        fill="url(#linear-gradient)"></path>
    <path
        d="M 140.433 72.414 C 138.747 73.148, 135.889 75.615, 134.083 77.895 C 131.227 81.501, 130.800 82.794, 130.800 87.832 C 130.800 96.386, 134.863 102.097, 142.899 104.840 C 147.725 106.487, 245.327 106.474, 250.101 104.826 C 255.894 102.827, 259.643 99.095, 261.577 93.405 C 263.176 88.701, 263.217 87.687, 261.962 83.883 C 260.184 78.497, 256.520 74.115, 252.329 72.364 C 247.598 70.387, 144.982 70.433, 140.433 72.414 M 284.379 72.382 C 279.638 74.528, 275.779 80.244, 275.233 85.926 C 274.345 95.166, 278.819 101.970, 287.714 104.906 C 297.916 108.273, 310 99.374, 310 88.495 C 310 83.248, 306.673 76.875, 302.463 74.057 C 298.009 71.076, 289.088 70.249, 284.379 72.382 M 92.622 140.411 C 87.728 141.927, 82.449 147.619, 81.022 152.920 C 78.708 161.513, 84.592 171.406, 93.421 173.768 C 96.776 174.665, 110.738 174.985, 144.764 174.946 C 198.096 174.884, 197.786 174.924, 203.709 167.159 C 206.563 163.418, 207 162.068, 207 157 C 207 151.932, 206.563 150.582, 203.709 146.841 C 197.763 139.044, 198.207 139.102, 144 139.159 C 109.976 139.195, 95.400 139.551, 92.622 140.411 M 240.293 140.648 C 235.155 142.468, 230.452 147.608, 229.004 152.987 C 226.726 161.443, 232.057 170.530, 241.047 173.515 C 245.666 175.050, 246.345 175.046, 251.120 173.460 C 253.937 172.525, 257.085 170.915, 258.116 169.884 C 261.251 166.749, 264 160.730, 264 157 C 264 153.280, 261.253 147.253, 258.138 144.138 C 256.361 142.361, 247.801 138.915, 245.572 139.079 C 244.982 139.122, 242.607 139.828, 240.293 140.648 M 142.500 209.228 C 134.830 211.965, 130.800 217.800, 130.800 226.168 C 130.800 231.207, 131.227 232.499, 134.086 236.109 C 139.703 243.201, 137.882 243, 196.500 243 C 238.633 243, 249.712 242.729, 252.329 241.636 C 256.516 239.886, 260.183 235.504, 261.956 230.132 C 263.213 226.324, 263.167 225.365, 261.501 220.732 C 259.538 215.275, 255.705 211.266, 250.593 209.326 C 246.444 207.751, 146.892 207.661, 142.500 209.228 M 285.442 209.948 C 268.427 217.524, 273.342 243, 291.819 243 C 305.431 243, 314.082 229.813, 308.081 218.210 C 305.694 213.594, 302.933 211.240, 297.767 209.418 C 292.659 207.615, 290.469 207.710, 285.442 209.948"
        fill="url(#linear-gradient)"></path>
</svg>